<svg xmlns="http://www.w3.org/2000/svg" width="1400" height="850" viewBox="0 0 1400 850">
<defs><radialGradient id="g" cx="72%" cy="35%" r="75%"><stop offset="0%" stop-color="#a855f7" stop-opacity=".34"/><stop offset="45%" stop-color="#1b0832"/><stop offset="100%" stop-color="#04050b"/></radialGradient><pattern id="p" width="70" height="70" patternUnits="userSpaceOnUse"><path d="M70 0H0V70" fill="none" stroke="#fff" stroke-opacity=".035"/></pattern></defs>
<rect width="1400" height="850" fill="url(#g)"/><rect width="1400" height="850" fill="url(#p)"/><circle cx="608" cy="374" r="20" fill="#a855f7" opacity=".08"/><circle cx="608" cy="454" r="29" fill="#a855f7" opacity=".08"/><circle cx="608" cy="534" r="38" fill="#a855f7" opacity=".08"/><circle cx="608" cy="154" r="47" fill="#a855f7" opacity=".08"/><circle cx="608" cy="234" r="56" fill="#a855f7" opacity=".08"/><rect x="42" y="42" width="1316" height="766" rx="42" fill="none" stroke="#a855f7" stroke-opacity=".35" stroke-width="2"/>
<g transform="translate(110,60)"><text x="0" y="55" font-family="Arial" font-size="28" font-weight="800" letter-spacing="8" fill="#a855f7">RARITY TEST</text><text x="0" y="700" font-family="Georgia" font-size="38" fill="#d8b04b">RareScore</text><text x="190" y="700" font-family="Arial" font-size="24" fill="#b9b4c4">Psychology, scores, and self-discovery.</text></g>
<g><circle cx="710" cy="330" r="42" fill="none" stroke="#a855f7" stroke-width="10"/><circle cx="815" cy="330" r="62" fill="none" stroke="#a855f7" stroke-width="10" opacity=".8"/><circle cx="940" cy="330" r="88" fill="none" stroke="#a855f7" stroke-width="10" opacity=".55"/><path d="M600 440 C690 380 820 495 990 390" stroke="#a855f7" stroke-width="8" fill="none" opacity=".45"/></g></svg>