<svg xmlns="http://www.w3.org/2000/svg" width="1400" height="850" viewBox="0 0 1400 850">
<defs><radialGradient id="g" cx="72%" cy="35%" r="75%"><stop offset="0%" stop-color="#d8b04b" stop-opacity=".34"/><stop offset="45%" stop-color="#201407"/><stop offset="100%" stop-color="#04050b"/></radialGradient><pattern id="p" width="70" height="70" patternUnits="userSpaceOnUse"><path d="M70 0H0V70" fill="none" stroke="#fff" stroke-opacity=".035"/></pattern></defs>
<rect width="1400" height="850" fill="url(#g)"/><rect width="1400" height="850" fill="url(#p)"/><circle cx="523" cy="219" r="20" fill="#d8b04b" opacity=".08"/><circle cx="523" cy="299" r="29" fill="#d8b04b" opacity=".08"/><circle cx="523" cy="379" r="38" fill="#d8b04b" opacity=".08"/><circle cx="523" cy="459" r="47" fill="#d8b04b" opacity=".08"/><circle cx="523" cy="539" r="56" fill="#d8b04b" opacity=".08"/><rect x="42" y="42" width="1316" height="766" rx="42" fill="none" stroke="#d8b04b" stroke-opacity=".35" stroke-width="2"/>
<g transform="translate(110,60)"><text x="0" y="55" font-family="Arial" font-size="28" font-weight="800" letter-spacing="8" fill="#d8b04b">MORALITY TEST</text><text x="0" y="700" font-family="Georgia" font-size="38" fill="#d8b04b">RareScore</text><text x="190" y="700" font-family="Arial" font-size="24" fill="#b9b4c4">Psychology, scores, and self-discovery.</text></g>
<g><path d="M735 195 V455 M650 455 H820 M620 245 H850 M735 245 L635 310 M735 245 L835 310 M590 310 L680 310 L635 390 Z M790 310 L880 310 L835 390 Z" fill="none" stroke="#d8b04b" stroke-width="12" stroke-linecap="round" stroke-linejoin="round"/></g></svg>