<svg xmlns="http://www.w3.org/2000/svg" width="1400" height="850" viewBox="0 0 1400 850">
<defs><radialGradient id="g" cx="72%" cy="35%" r="75%"><stop offset="0%" stop-color="#4da3ff" stop-opacity=".34"/><stop offset="45%" stop-color="#071426"/><stop offset="100%" stop-color="#04050b"/></radialGradient><pattern id="p" width="70" height="70" patternUnits="userSpaceOnUse"><path d="M70 0H0V70" fill="none" stroke="#fff" stroke-opacity=".035"/></pattern></defs>
<rect width="1400" height="850" fill="url(#g)"/><rect width="1400" height="850" fill="url(#p)"/><circle cx="744" cy="162" r="20" fill="#4da3ff" opacity=".08"/><circle cx="744" cy="242" r="29" fill="#4da3ff" opacity=".08"/><circle cx="744" cy="322" r="38" fill="#4da3ff" opacity=".08"/><circle cx="744" cy="402" r="47" fill="#4da3ff" opacity=".08"/><circle cx="744" cy="482" r="56" fill="#4da3ff" opacity=".08"/><rect x="42" y="42" width="1316" height="766" rx="42" fill="none" stroke="#4da3ff" stroke-opacity=".35" stroke-width="2"/>
<g transform="translate(110,60)"><text x="0" y="55" font-family="Arial" font-size="28" font-weight="800" letter-spacing="8" fill="#4da3ff">IQ TEST</text><text x="0" y="700" font-family="Georgia" font-size="38" fill="#d8b04b">RareScore</text><text x="190" y="700" font-family="Arial" font-size="24" fill="#b9b4c4">Psychology, scores, and self-discovery.</text></g>
<g><path d="M610 330 C590 255 655 210 720 250 C770 180 875 215 865 310 C940 335 920 450 820 450 H680 C590 450 550 380 610 330 Z" fill="none" stroke="#4da3ff" stroke-width="16"/><path d="M690 285 C730 320 760 318 805 280 M665 355 C720 330 760 365 835 340" fill="none" stroke="#4da3ff" stroke-width="8" opacity=".7"/></g></svg>