<svg xmlns="http://www.w3.org/2000/svg" width="1400" height="850" viewBox="0 0 1400 850">
<defs><radialGradient id="g" cx="72%" cy="35%" r="75%"><stop offset="0%" stop-color="#f472b6" stop-opacity=".34"/><stop offset="45%" stop-color="#1a0f25"/><stop offset="100%" stop-color="#04050b"/></radialGradient><pattern id="p" width="70" height="70" patternUnits="userSpaceOnUse"><path d="M70 0H0V70" fill="none" stroke="#fff" stroke-opacity=".035"/></pattern></defs>
<rect width="1400" height="850" fill="url(#g)"/><rect width="1400" height="850" fill="url(#p)"/><circle cx="625" cy="405" r="20" fill="#f472b6" opacity=".08"/><circle cx="625" cy="485" r="29" fill="#f472b6" opacity=".08"/><circle cx="625" cy="105" r="38" fill="#f472b6" opacity=".08"/><circle cx="625" cy="185" r="47" fill="#f472b6" opacity=".08"/><circle cx="625" cy="265" r="56" fill="#f472b6" opacity=".08"/><rect x="42" y="42" width="1316" height="766" rx="42" fill="none" stroke="#f472b6" stroke-opacity=".35" stroke-width="2"/>
<g transform="translate(110,60)"><text x="0" y="55" font-family="Arial" font-size="28" font-weight="800" letter-spacing="8" fill="#f472b6">SELF DISCOVERY</text><text x="0" y="700" font-family="Georgia" font-size="38" fill="#d8b04b">RareScore</text><text x="190" y="700" font-family="Arial" font-size="24" fill="#b9b4c4">Psychology, scores, and self-discovery.</text></g>
<g><rect x="635" y="215" width="260" height="290" rx="48" fill="none" stroke="#f472b6" stroke-width="12"/><path d="M700 320 C735 275 790 275 825 320 M695 385 C735 430 785 430 830 385" fill="none" stroke="#f472b6" stroke-width="10"/></g></svg>